<mxfile host="Electron" modified="2023-04-06T14:07:44.141Z" agent="Mozilla/5.0 (Windows NT 10.0; Win64; x64) AppleWebKit/537.36 (KHTML, like Gecko) draw.io/21.1.2 Chrome/106.0.5249.199 Electron/21.4.3 Safari/537.36" etag="0sRYpvG2-tG1jIQmDxEh" version="21.1.2" type="device">
  <diagram name="Page-1" id="ab_Uid5dcE32SzvnxdGC">
    <mxGraphModel dx="1276" dy="654" grid="1" gridSize="10" guides="1" tooltips="1" connect="1" arrows="1" fold="1" page="1" pageScale="1" pageWidth="1100" pageHeight="850" math="0" shadow="0">
      <root>
        <mxCell id="0" />
        <mxCell id="1" parent="0" />
        <mxCell id="QxSOPmF_ZFx1kEeD80Ws-1" value="&lt;b&gt;CITY&lt;/b&gt;" style="rounded=0;whiteSpace=wrap;html=1;" parent="1" vertex="1">
          <mxGeometry x="120" y="80" width="120" height="60" as="geometry" />
        </mxCell>
        <mxCell id="QxSOPmF_ZFx1kEeD80Ws-2" value="&lt;b&gt;COURSE&lt;/b&gt;" style="rounded=0;whiteSpace=wrap;html=1;" parent="1" vertex="1">
          <mxGeometry x="480" y="560" width="120" height="60" as="geometry" />
        </mxCell>
        <mxCell id="QxSOPmF_ZFx1kEeD80Ws-3" value="&lt;b&gt;GRADUATE&lt;br&gt;STUDENT&lt;/b&gt;" style="rounded=0;whiteSpace=wrap;html=1;" parent="1" vertex="1">
          <mxGeometry x="120" y="395" width="120" height="60" as="geometry" />
        </mxCell>
        <mxCell id="QxSOPmF_ZFx1kEeD80Ws-4" value="&lt;b&gt;ROOM&lt;/b&gt;" style="rounded=0;whiteSpace=wrap;html=1;" parent="1" vertex="1">
          <mxGeometry x="840" y="560" width="120" height="60" as="geometry" />
        </mxCell>
        <mxCell id="QxSOPmF_ZFx1kEeD80Ws-5" value="&lt;b&gt;TIME&lt;/b&gt;" style="rounded=0;whiteSpace=wrap;html=1;" parent="1" vertex="1">
          <mxGeometry x="120" y="560" width="120" height="60" as="geometry" />
        </mxCell>
        <mxCell id="QxSOPmF_ZFx1kEeD80Ws-6" value="&lt;b&gt;STUDENT&lt;/b&gt;" style="rounded=0;whiteSpace=wrap;html=1;" parent="1" vertex="1">
          <mxGeometry x="120" y="240" width="120" height="60" as="geometry" />
        </mxCell>
        <mxCell id="QxSOPmF_ZFx1kEeD80Ws-7" value="&lt;b&gt;PERSON&lt;/b&gt;" style="rounded=0;whiteSpace=wrap;html=1;" parent="1" vertex="1">
          <mxGeometry x="480" y="80" width="120" height="60" as="geometry" />
        </mxCell>
        <mxCell id="QxSOPmF_ZFx1kEeD80Ws-8" value="&lt;b&gt;VISITING&lt;br&gt;PROFESSOR&lt;/b&gt;" style="rounded=0;whiteSpace=wrap;html=1;" parent="1" vertex="1">
          <mxGeometry x="840" y="395" width="120" height="60" as="geometry" />
        </mxCell>
        <mxCell id="QxSOPmF_ZFx1kEeD80Ws-9" value="&lt;b&gt;PROFESSOR&lt;/b&gt;" style="rounded=0;whiteSpace=wrap;html=1;" parent="1" vertex="1">
          <mxGeometry x="840" y="240" width="120" height="60" as="geometry" />
        </mxCell>
        <mxCell id="QxSOPmF_ZFx1kEeD80Ws-10" value="&lt;b&gt;DEPARTMENT&lt;/b&gt;" style="rounded=0;whiteSpace=wrap;html=1;" parent="1" vertex="1">
          <mxGeometry x="840" y="80" width="120" height="60" as="geometry" />
        </mxCell>
        <mxCell id="QxSOPmF_ZFx1kEeD80Ws-16" value="" style="endArrow=none;html=1;rounded=0;exitX=0.5;exitY=1;exitDx=0;exitDy=0;entryX=0;entryY=0;entryDx=0;entryDy=0;" parent="1" source="QxSOPmF_ZFx1kEeD80Ws-59" target="QxSOPmF_ZFx1kEeD80Ws-1" edge="1">
          <mxGeometry width="50" height="50" relative="1" as="geometry">
            <mxPoint x="100" y="40" as="sourcePoint" />
            <mxPoint x="520" y="250" as="targetPoint" />
          </mxGeometry>
        </mxCell>
        <mxCell id="QxSOPmF_ZFx1kEeD80Ws-17" value="" style="endArrow=none;html=1;rounded=0;exitX=0.75;exitY=1;exitDx=0;exitDy=0;entryX=0.5;entryY=0;entryDx=0;entryDy=0;" parent="1" target="QxSOPmF_ZFx1kEeD80Ws-1" edge="1">
          <mxGeometry width="50" height="50" relative="1" as="geometry">
            <mxPoint x="180" y="40" as="sourcePoint" />
            <mxPoint x="129.99999999999977" y="90" as="targetPoint" />
          </mxGeometry>
        </mxCell>
        <mxCell id="QxSOPmF_ZFx1kEeD80Ws-18" value="" style="endArrow=none;html=1;rounded=0;exitX=0.5;exitY=1;exitDx=0;exitDy=0;entryX=1;entryY=0;entryDx=0;entryDy=0;" parent="1" source="QxSOPmF_ZFx1kEeD80Ws-61" target="QxSOPmF_ZFx1kEeD80Ws-1" edge="1">
          <mxGeometry width="50" height="50" relative="1" as="geometry">
            <mxPoint x="270" y="40" as="sourcePoint" />
            <mxPoint x="189.99999999999977" y="90" as="targetPoint" />
          </mxGeometry>
        </mxCell>
        <mxCell id="QxSOPmF_ZFx1kEeD80Ws-59" value="&lt;u&gt;&lt;b&gt;City ID&lt;/b&gt;&lt;/u&gt;" style="ellipse;whiteSpace=wrap;html=1;" parent="1" vertex="1">
          <mxGeometry x="70" y="10" width="50" height="30" as="geometry" />
        </mxCell>
        <mxCell id="QxSOPmF_ZFx1kEeD80Ws-60" value="Name" style="ellipse;whiteSpace=wrap;html=1;" parent="1" vertex="1">
          <mxGeometry x="155" y="10" width="50" height="30" as="geometry" />
        </mxCell>
        <mxCell id="QxSOPmF_ZFx1kEeD80Ws-61" value="State" style="ellipse;whiteSpace=wrap;html=1;" parent="1" vertex="1">
          <mxGeometry x="240" y="10" width="50" height="30" as="geometry" />
        </mxCell>
        <mxCell id="QxSOPmF_ZFx1kEeD80Ws-62" value="" style="endArrow=none;html=1;rounded=0;exitX=0.5;exitY=1;exitDx=0;exitDy=0;entryX=0;entryY=0;entryDx=0;entryDy=0;" parent="1" source="QxSOPmF_ZFx1kEeD80Ws-65" edge="1">
          <mxGeometry width="50" height="50" relative="1" as="geometry">
            <mxPoint x="460" y="40" as="sourcePoint" />
            <mxPoint x="480" y="80" as="targetPoint" />
          </mxGeometry>
        </mxCell>
        <mxCell id="QxSOPmF_ZFx1kEeD80Ws-63" value="" style="endArrow=none;html=1;rounded=0;exitX=0.75;exitY=1;exitDx=0;exitDy=0;entryX=0.5;entryY=0;entryDx=0;entryDy=0;" parent="1" edge="1">
          <mxGeometry width="50" height="50" relative="1" as="geometry">
            <mxPoint x="540" y="40" as="sourcePoint" />
            <mxPoint x="540" y="80" as="targetPoint" />
          </mxGeometry>
        </mxCell>
        <mxCell id="QxSOPmF_ZFx1kEeD80Ws-64" value="" style="endArrow=none;html=1;rounded=0;exitX=0.5;exitY=1;exitDx=0;exitDy=0;entryX=1;entryY=0;entryDx=0;entryDy=0;" parent="1" source="QxSOPmF_ZFx1kEeD80Ws-67" edge="1">
          <mxGeometry width="50" height="50" relative="1" as="geometry">
            <mxPoint x="630" y="40" as="sourcePoint" />
            <mxPoint x="600" y="80" as="targetPoint" />
          </mxGeometry>
        </mxCell>
        <mxCell id="QxSOPmF_ZFx1kEeD80Ws-65" value="&lt;u&gt;&lt;b&gt;ID&lt;/b&gt;&lt;/u&gt;" style="ellipse;whiteSpace=wrap;html=1;" parent="1" vertex="1">
          <mxGeometry x="430" y="10" width="50" height="30" as="geometry" />
        </mxCell>
        <mxCell id="QxSOPmF_ZFx1kEeD80Ws-66" value="Name" style="ellipse;whiteSpace=wrap;html=1;" parent="1" vertex="1">
          <mxGeometry x="515" y="10" width="50" height="30" as="geometry" />
        </mxCell>
        <mxCell id="QxSOPmF_ZFx1kEeD80Ws-67" value="Age" style="ellipse;whiteSpace=wrap;html=1;" parent="1" vertex="1">
          <mxGeometry x="600" y="10" width="50" height="30" as="geometry" />
        </mxCell>
        <mxCell id="QxSOPmF_ZFx1kEeD80Ws-69" value="" style="endArrow=none;html=1;rounded=0;entryX=0.5;entryY=0;entryDx=0;entryDy=0;exitX=0.5;exitY=1;exitDx=0;exitDy=0;" parent="1" source="QxSOPmF_ZFx1kEeD80Ws-72" target="QxSOPmF_ZFx1kEeD80Ws-10" edge="1">
          <mxGeometry width="50" height="50" relative="1" as="geometry">
            <mxPoint x="900" y="40" as="sourcePoint" />
            <mxPoint x="900" y="80" as="targetPoint" />
          </mxGeometry>
        </mxCell>
        <mxCell id="QxSOPmF_ZFx1kEeD80Ws-70" value="" style="endArrow=none;html=1;rounded=0;exitX=0.5;exitY=1;exitDx=0;exitDy=0;entryX=1;entryY=0;entryDx=0;entryDy=0;" parent="1" source="QxSOPmF_ZFx1kEeD80Ws-73" edge="1">
          <mxGeometry width="50" height="50" relative="1" as="geometry">
            <mxPoint x="990" y="40" as="sourcePoint" />
            <mxPoint x="960" y="80" as="targetPoint" />
          </mxGeometry>
        </mxCell>
        <mxCell id="QxSOPmF_ZFx1kEeD80Ws-72" value="Name" style="ellipse;whiteSpace=wrap;html=1;" parent="1" vertex="1">
          <mxGeometry x="875" y="10" width="50" height="30" as="geometry" />
        </mxCell>
        <mxCell id="QxSOPmF_ZFx1kEeD80Ws-73" value="Phone" style="ellipse;whiteSpace=wrap;html=1;" parent="1" vertex="1">
          <mxGeometry x="960" y="10" width="50" height="30" as="geometry" />
        </mxCell>
        <mxCell id="QxSOPmF_ZFx1kEeD80Ws-74" value="" style="endArrow=none;html=1;rounded=0;exitX=0.5;exitY=1;exitDx=0;exitDy=0;" parent="1" source="QxSOPmF_ZFx1kEeD80Ws-76" edge="1">
          <mxGeometry width="50" height="50" relative="1" as="geometry">
            <mxPoint x="870" y="40" as="sourcePoint" />
            <mxPoint x="840" y="80" as="targetPoint" />
          </mxGeometry>
        </mxCell>
        <mxCell id="QxSOPmF_ZFx1kEeD80Ws-76" value="&lt;b&gt;&lt;u&gt;Address&lt;/u&gt;&lt;/b&gt;" style="ellipse;whiteSpace=wrap;html=1;" parent="1" vertex="1">
          <mxGeometry x="790" y="10" width="50" height="30" as="geometry" />
        </mxCell>
        <mxCell id="QxSOPmF_ZFx1kEeD80Ws-80" value="" style="endArrow=none;html=1;rounded=0;entryX=1;entryY=0.5;entryDx=0;entryDy=0;" parent="1" source="QxSOPmF_ZFx1kEeD80Ws-82" target="QxSOPmF_ZFx1kEeD80Ws-9" edge="1">
          <mxGeometry width="50" height="50" relative="1" as="geometry">
            <mxPoint x="1030" y="240" as="sourcePoint" />
            <mxPoint x="1030" y="280" as="targetPoint" />
          </mxGeometry>
        </mxCell>
        <mxCell id="QxSOPmF_ZFx1kEeD80Ws-81" value="" style="endArrow=none;html=1;rounded=0;exitX=0;exitY=0.5;exitDx=0;exitDy=0;entryX=1;entryY=1;entryDx=0;entryDy=0;" parent="1" source="QxSOPmF_ZFx1kEeD80Ws-83" target="QxSOPmF_ZFx1kEeD80Ws-9" edge="1">
          <mxGeometry width="50" height="50" relative="1" as="geometry">
            <mxPoint x="1120" y="240" as="sourcePoint" />
            <mxPoint x="1090" y="280" as="targetPoint" />
          </mxGeometry>
        </mxCell>
        <mxCell id="QxSOPmF_ZFx1kEeD80Ws-82" value="Name" style="ellipse;whiteSpace=wrap;html=1;" parent="1" vertex="1">
          <mxGeometry x="1000" y="255" width="50" height="30" as="geometry" />
        </mxCell>
        <mxCell id="QxSOPmF_ZFx1kEeD80Ws-83" value="Tenure&lt;br&gt;Status" style="ellipse;whiteSpace=wrap;html=1;" parent="1" vertex="1">
          <mxGeometry x="1000" y="300" width="50" height="40" as="geometry" />
        </mxCell>
        <mxCell id="QxSOPmF_ZFx1kEeD80Ws-84" value="" style="endArrow=none;html=1;rounded=0;exitX=0;exitY=0.5;exitDx=0;exitDy=0;entryX=1;entryY=0;entryDx=0;entryDy=0;" parent="1" source="QxSOPmF_ZFx1kEeD80Ws-85" target="QxSOPmF_ZFx1kEeD80Ws-9" edge="1">
          <mxGeometry width="50" height="50" relative="1" as="geometry">
            <mxPoint x="1000" y="240" as="sourcePoint" />
            <mxPoint x="970" y="280" as="targetPoint" />
          </mxGeometry>
        </mxCell>
        <mxCell id="QxSOPmF_ZFx1kEeD80Ws-85" value="&lt;b&gt;&lt;u&gt;ID&lt;/u&gt;&lt;/b&gt;" style="ellipse;whiteSpace=wrap;html=1;" parent="1" vertex="1">
          <mxGeometry x="1000" y="210" width="50" height="30" as="geometry" />
        </mxCell>
        <mxCell id="QxSOPmF_ZFx1kEeD80Ws-87" value="&lt;span style=&quot;font-size: 10px;&quot;&gt;&lt;b style=&quot;&quot;&gt;&lt;u&gt;ID meeting&lt;/u&gt;&lt;/b&gt;&lt;/span&gt;" style="ellipse;whiteSpace=wrap;html=1;" parent="1" vertex="1">
          <mxGeometry x="1000" y="350" width="60" height="40" as="geometry" />
        </mxCell>
        <mxCell id="QxSOPmF_ZFx1kEeD80Ws-88" value="&lt;font style=&quot;font-size: 10px;&quot;&gt;End&lt;br&gt;appointment&lt;/font&gt;" style="ellipse;whiteSpace=wrap;html=1;" parent="1" vertex="1">
          <mxGeometry x="1000" y="470" width="60" height="40" as="geometry" />
        </mxCell>
        <mxCell id="QxSOPmF_ZFx1kEeD80Ws-90" value="" style="endArrow=none;html=1;rounded=0;fontSize=10;exitX=1;exitY=0;exitDx=0;exitDy=0;entryX=0;entryY=0.5;entryDx=0;entryDy=0;" parent="1" source="QxSOPmF_ZFx1kEeD80Ws-8" target="QxSOPmF_ZFx1kEeD80Ws-87" edge="1">
          <mxGeometry width="50" height="50" relative="1" as="geometry">
            <mxPoint x="810" y="410" as="sourcePoint" />
            <mxPoint x="997" y="380" as="targetPoint" />
          </mxGeometry>
        </mxCell>
        <mxCell id="QxSOPmF_ZFx1kEeD80Ws-91" value="" style="endArrow=none;html=1;rounded=0;fontSize=10;exitX=1;exitY=1;exitDx=0;exitDy=0;entryX=0;entryY=0.5;entryDx=0;entryDy=0;" parent="1" source="QxSOPmF_ZFx1kEeD80Ws-8" target="QxSOPmF_ZFx1kEeD80Ws-88" edge="1">
          <mxGeometry width="50" height="50" relative="1" as="geometry">
            <mxPoint x="970" y="405" as="sourcePoint" />
            <mxPoint x="1007" y="390" as="targetPoint" />
          </mxGeometry>
        </mxCell>
        <mxCell id="QxSOPmF_ZFx1kEeD80Ws-92" value="&lt;font style=&quot;font-size: 10px;&quot;&gt;&lt;b&gt;&lt;u&gt;Room&lt;br&gt;Number&lt;/u&gt;&lt;/b&gt;&lt;/font&gt;" style="ellipse;whiteSpace=wrap;html=1;" parent="1" vertex="1">
          <mxGeometry x="1000" y="535" width="60" height="40" as="geometry" />
        </mxCell>
        <mxCell id="QxSOPmF_ZFx1kEeD80Ws-93" value="&lt;span style=&quot;font-size: 10px;&quot;&gt;Building&lt;/span&gt;" style="ellipse;whiteSpace=wrap;html=1;" parent="1" vertex="1">
          <mxGeometry x="1000" y="605" width="60" height="40" as="geometry" />
        </mxCell>
        <mxCell id="QxSOPmF_ZFx1kEeD80Ws-94" value="" style="endArrow=none;html=1;rounded=0;fontSize=10;exitX=1;exitY=0;exitDx=0;exitDy=0;entryX=0;entryY=0.5;entryDx=0;entryDy=0;" parent="1" target="QxSOPmF_ZFx1kEeD80Ws-92" edge="1">
          <mxGeometry width="50" height="50" relative="1" as="geometry">
            <mxPoint x="960" y="560" as="sourcePoint" />
            <mxPoint x="997" y="545" as="targetPoint" />
          </mxGeometry>
        </mxCell>
        <mxCell id="QxSOPmF_ZFx1kEeD80Ws-95" value="" style="endArrow=none;html=1;rounded=0;fontSize=10;exitX=1;exitY=1;exitDx=0;exitDy=0;entryX=0;entryY=0.5;entryDx=0;entryDy=0;" parent="1" target="QxSOPmF_ZFx1kEeD80Ws-93" edge="1">
          <mxGeometry width="50" height="50" relative="1" as="geometry">
            <mxPoint x="960" y="620" as="sourcePoint" />
            <mxPoint x="1007" y="555" as="targetPoint" />
          </mxGeometry>
        </mxCell>
        <mxCell id="QxSOPmF_ZFx1kEeD80Ws-97" value="&lt;font style=&quot;font-size: 10px;&quot;&gt;Start&amp;nbsp;&lt;br&gt;appointment&lt;/font&gt;" style="ellipse;whiteSpace=wrap;html=1;" parent="1" vertex="1">
          <mxGeometry x="1000" y="405" width="60" height="40" as="geometry" />
        </mxCell>
        <mxCell id="QxSOPmF_ZFx1kEeD80Ws-98" value="" style="endArrow=none;html=1;rounded=0;fontSize=10;exitX=1;exitY=0;exitDx=0;exitDy=0;entryX=0;entryY=0.5;entryDx=0;entryDy=0;" parent="1" target="QxSOPmF_ZFx1kEeD80Ws-97" edge="1">
          <mxGeometry width="50" height="50" relative="1" as="geometry">
            <mxPoint x="960" y="425" as="sourcePoint" />
            <mxPoint x="997" y="410" as="targetPoint" />
          </mxGeometry>
        </mxCell>
        <mxCell id="QxSOPmF_ZFx1kEeD80Ws-99" value="" style="endArrow=none;html=1;rounded=0;exitX=0.5;exitY=0;exitDx=0;exitDy=0;entryX=0;entryY=1;entryDx=0;entryDy=0;" parent="1" source="QxSOPmF_ZFx1kEeD80Ws-102" target="QxSOPmF_ZFx1kEeD80Ws-2" edge="1">
          <mxGeometry width="50" height="50" relative="1" as="geometry">
            <mxPoint x="460" y="690" as="sourcePoint" />
            <mxPoint x="480" y="730" as="targetPoint" />
          </mxGeometry>
        </mxCell>
        <mxCell id="QxSOPmF_ZFx1kEeD80Ws-100" value="" style="endArrow=none;html=1;rounded=0;exitX=0.5;exitY=1;exitDx=0;exitDy=0;" parent="1" source="QxSOPmF_ZFx1kEeD80Ws-2" target="QxSOPmF_ZFx1kEeD80Ws-103" edge="1">
          <mxGeometry width="50" height="50" relative="1" as="geometry">
            <mxPoint x="540" y="690" as="sourcePoint" />
            <mxPoint x="540" y="730" as="targetPoint" />
          </mxGeometry>
        </mxCell>
        <mxCell id="QxSOPmF_ZFx1kEeD80Ws-101" value="" style="endArrow=none;html=1;rounded=0;exitX=0.5;exitY=0;exitDx=0;exitDy=0;entryX=1;entryY=1;entryDx=0;entryDy=0;" parent="1" source="QxSOPmF_ZFx1kEeD80Ws-104" target="QxSOPmF_ZFx1kEeD80Ws-2" edge="1">
          <mxGeometry width="50" height="50" relative="1" as="geometry">
            <mxPoint x="630" y="690" as="sourcePoint" />
            <mxPoint x="600" y="730" as="targetPoint" />
          </mxGeometry>
        </mxCell>
        <mxCell id="QxSOPmF_ZFx1kEeD80Ws-102" value="&lt;u&gt;&lt;b&gt;Title&lt;/b&gt;&lt;/u&gt;" style="ellipse;whiteSpace=wrap;html=1;" parent="1" vertex="1">
          <mxGeometry x="430" y="660" width="50" height="30" as="geometry" />
        </mxCell>
        <mxCell id="QxSOPmF_ZFx1kEeD80Ws-103" value="Description" style="ellipse;whiteSpace=wrap;html=1;" parent="1" vertex="1">
          <mxGeometry x="507.5" y="660" width="65" height="40" as="geometry" />
        </mxCell>
        <mxCell id="QxSOPmF_ZFx1kEeD80Ws-104" value="Credits" style="ellipse;whiteSpace=wrap;html=1;" parent="1" vertex="1">
          <mxGeometry x="600" y="660" width="50" height="30" as="geometry" />
        </mxCell>
        <mxCell id="QxSOPmF_ZFx1kEeD80Ws-105" value="&lt;span style=&quot;font-size: 10px;&quot;&gt;&lt;b&gt;&lt;u&gt;Day&lt;/u&gt;&lt;/b&gt;&lt;/span&gt;" style="ellipse;whiteSpace=wrap;html=1;" parent="1" vertex="1">
          <mxGeometry x="20" y="520" width="60" height="40" as="geometry" />
        </mxCell>
        <mxCell id="QxSOPmF_ZFx1kEeD80Ws-106" value="&lt;span style=&quot;font-size: 10px;&quot;&gt;Hour&lt;/span&gt;" style="ellipse;whiteSpace=wrap;html=1;" parent="1" vertex="1">
          <mxGeometry x="20" y="620" width="60" height="40" as="geometry" />
        </mxCell>
        <mxCell id="QxSOPmF_ZFx1kEeD80Ws-107" value="" style="endArrow=none;html=1;rounded=0;fontSize=10;exitX=0;exitY=0;exitDx=0;exitDy=0;entryX=1;entryY=0.5;entryDx=0;entryDy=0;" parent="1" source="QxSOPmF_ZFx1kEeD80Ws-5" target="QxSOPmF_ZFx1kEeD80Ws-105" edge="1">
          <mxGeometry width="50" height="50" relative="1" as="geometry">
            <mxPoint x="-40" y="570" as="sourcePoint" />
            <mxPoint x="70" y="560" as="targetPoint" />
          </mxGeometry>
        </mxCell>
        <mxCell id="QxSOPmF_ZFx1kEeD80Ws-108" value="" style="endArrow=none;html=1;rounded=0;fontSize=10;exitX=0;exitY=1;exitDx=0;exitDy=0;entryX=1;entryY=0.5;entryDx=0;entryDy=0;" parent="1" source="QxSOPmF_ZFx1kEeD80Ws-5" target="QxSOPmF_ZFx1kEeD80Ws-106" edge="1">
          <mxGeometry width="50" height="50" relative="1" as="geometry">
            <mxPoint x="-40" y="630" as="sourcePoint" />
            <mxPoint x="7" y="565" as="targetPoint" />
          </mxGeometry>
        </mxCell>
        <mxCell id="QxSOPmF_ZFx1kEeD80Ws-110" value="Resident" style="rhombus;whiteSpace=wrap;html=1;fontSize=10;" parent="1" vertex="1">
          <mxGeometry x="290" y="170" width="60" height="60" as="geometry" />
        </mxCell>
        <mxCell id="QxSOPmF_ZFx1kEeD80Ws-111" value="" style="endArrow=none;html=1;rounded=0;fontSize=10;exitX=1;exitY=0.5;exitDx=0;exitDy=0;entryX=0.5;entryY=1;entryDx=0;entryDy=0;" parent="1" source="QxSOPmF_ZFx1kEeD80Ws-6" target="QxSOPmF_ZFx1kEeD80Ws-110" edge="1">
          <mxGeometry width="50" height="50" relative="1" as="geometry">
            <mxPoint x="300" y="250" as="sourcePoint" />
            <mxPoint x="350" y="200" as="targetPoint" />
            <Array as="points">
              <mxPoint x="320" y="270" />
            </Array>
          </mxGeometry>
        </mxCell>
        <mxCell id="QxSOPmF_ZFx1kEeD80Ws-112" value="" style="endArrow=none;html=1;rounded=0;fontSize=10;exitX=0.5;exitY=1;exitDx=0;exitDy=0;entryX=0;entryY=0.5;entryDx=0;entryDy=0;" parent="1" source="QxSOPmF_ZFx1kEeD80Ws-1" target="QxSOPmF_ZFx1kEeD80Ws-110" edge="1">
          <mxGeometry width="50" height="50" relative="1" as="geometry">
            <mxPoint x="300" y="250" as="sourcePoint" />
            <mxPoint x="350" y="200" as="targetPoint" />
            <Array as="points">
              <mxPoint x="180" y="200" />
            </Array>
          </mxGeometry>
        </mxCell>
        <mxCell id="QxSOPmF_ZFx1kEeD80Ws-113" value="" style="endArrow=none;html=1;rounded=0;fontSize=10;exitX=1;exitY=0.75;exitDx=0;exitDy=0;entryX=0;entryY=0.75;entryDx=0;entryDy=0;" parent="1" source="QxSOPmF_ZFx1kEeD80Ws-6" target="QxSOPmF_ZFx1kEeD80Ws-9" edge="1">
          <mxGeometry width="50" height="50" relative="1" as="geometry">
            <mxPoint x="520" y="260" as="sourcePoint" />
            <mxPoint x="570" y="210" as="targetPoint" />
          </mxGeometry>
        </mxCell>
        <mxCell id="QxSOPmF_ZFx1kEeD80Ws-114" value="" style="endArrow=classic;html=1;rounded=0;fontSize=10;entryX=0.5;entryY=1;entryDx=0;entryDy=0;" parent="1" edge="1">
          <mxGeometry width="50" height="50" relative="1" as="geometry">
            <mxPoint x="540" y="285" as="sourcePoint" />
            <mxPoint x="540" y="135" as="targetPoint" />
          </mxGeometry>
        </mxCell>
        <mxCell id="QxSOPmF_ZFx1kEeD80Ws-115" value="" style="endArrow=classic;html=1;rounded=0;fontSize=10;entryX=0.5;entryY=1;entryDx=0;entryDy=0;" parent="1" source="QxSOPmF_ZFx1kEeD80Ws-3" target="QxSOPmF_ZFx1kEeD80Ws-6" edge="1">
          <mxGeometry width="50" height="50" relative="1" as="geometry">
            <mxPoint x="180" y="390" as="sourcePoint" />
            <mxPoint x="530" y="320" as="targetPoint" />
          </mxGeometry>
        </mxCell>
        <mxCell id="QxSOPmF_ZFx1kEeD80Ws-116" value="Advised" style="rhombus;whiteSpace=wrap;html=1;fontSize=10;" parent="1" vertex="1">
          <mxGeometry x="500" y="385" width="80" height="80" as="geometry" />
        </mxCell>
        <mxCell id="QxSOPmF_ZFx1kEeD80Ws-117" value="" style="endArrow=none;html=1;rounded=0;fontSize=10;exitX=1;exitY=0.5;exitDx=0;exitDy=0;entryX=0;entryY=0.5;entryDx=0;entryDy=0;" parent="1" source="QxSOPmF_ZFx1kEeD80Ws-3" target="QxSOPmF_ZFx1kEeD80Ws-116" edge="1">
          <mxGeometry width="50" height="50" relative="1" as="geometry">
            <mxPoint x="490" y="320" as="sourcePoint" />
            <mxPoint x="540" y="270" as="targetPoint" />
          </mxGeometry>
        </mxCell>
        <mxCell id="QxSOPmF_ZFx1kEeD80Ws-118" value="" style="endArrow=none;html=1;rounded=0;fontSize=10;exitX=0;exitY=1;exitDx=0;exitDy=0;entryX=0.5;entryY=0;entryDx=0;entryDy=0;" parent="1" source="QxSOPmF_ZFx1kEeD80Ws-9" target="QxSOPmF_ZFx1kEeD80Ws-116" edge="1">
          <mxGeometry width="50" height="50" relative="1" as="geometry">
            <mxPoint x="250" y="435" as="sourcePoint" />
            <mxPoint x="510" y="435" as="targetPoint" />
            <Array as="points">
              <mxPoint x="840" y="340" />
              <mxPoint x="540" y="340" />
            </Array>
          </mxGeometry>
        </mxCell>
        <mxCell id="QxSOPmF_ZFx1kEeD80Ws-119" value="" style="endArrow=classic;html=1;rounded=0;fontSize=10;entryX=0.5;entryY=1;entryDx=0;entryDy=0;" parent="1" source="QxSOPmF_ZFx1kEeD80Ws-8" target="QxSOPmF_ZFx1kEeD80Ws-9" edge="1">
          <mxGeometry width="50" height="50" relative="1" as="geometry">
            <mxPoint x="900" y="390" as="sourcePoint" />
            <mxPoint x="540" y="270" as="targetPoint" />
          </mxGeometry>
        </mxCell>
        <mxCell id="QxSOPmF_ZFx1kEeD80Ws-120" value="Belongs" style="rhombus;whiteSpace=wrap;html=1;fontSize=10;" parent="1" vertex="1">
          <mxGeometry x="680" y="160" width="80" height="80" as="geometry" />
        </mxCell>
        <mxCell id="QxSOPmF_ZFx1kEeD80Ws-121" value="" style="endArrow=none;html=1;rounded=0;fontSize=10;entryX=0;entryY=0.5;entryDx=0;entryDy=0;exitX=0.5;exitY=0;exitDx=0;exitDy=0;" parent="1" source="QxSOPmF_ZFx1kEeD80Ws-120" target="QxSOPmF_ZFx1kEeD80Ws-10" edge="1">
          <mxGeometry width="50" height="50" relative="1" as="geometry">
            <mxPoint x="700" y="230" as="sourcePoint" />
            <mxPoint x="750" y="180" as="targetPoint" />
            <Array as="points">
              <mxPoint x="720" y="110" />
            </Array>
          </mxGeometry>
        </mxCell>
        <mxCell id="QxSOPmF_ZFx1kEeD80Ws-122" value="" style="endArrow=none;html=1;rounded=0;fontSize=10;exitX=1;exitY=0.5;exitDx=0;exitDy=0;entryX=0.5;entryY=0;entryDx=0;entryDy=0;" parent="1" source="QxSOPmF_ZFx1kEeD80Ws-120" target="QxSOPmF_ZFx1kEeD80Ws-9" edge="1">
          <mxGeometry width="50" height="50" relative="1" as="geometry">
            <mxPoint x="260" y="445" as="sourcePoint" />
            <mxPoint x="520" y="445" as="targetPoint" />
            <Array as="points">
              <mxPoint x="900" y="200" />
            </Array>
          </mxGeometry>
        </mxCell>
        <mxCell id="QxSOPmF_ZFx1kEeD80Ws-123" value="Birth_Place" style="rhombus;whiteSpace=wrap;html=1;fontSize=10;" parent="1" vertex="1">
          <mxGeometry x="330" y="80" width="60" height="60" as="geometry" />
        </mxCell>
        <mxCell id="QxSOPmF_ZFx1kEeD80Ws-124" value="" style="endArrow=none;html=1;rounded=0;fontSize=10;exitX=1;exitY=0.5;exitDx=0;exitDy=0;entryX=0;entryY=0.5;entryDx=0;entryDy=0;" parent="1" source="QxSOPmF_ZFx1kEeD80Ws-1" target="QxSOPmF_ZFx1kEeD80Ws-123" edge="1">
          <mxGeometry width="50" height="50" relative="1" as="geometry">
            <mxPoint x="530" y="240" as="sourcePoint" />
            <mxPoint x="580" y="190" as="targetPoint" />
          </mxGeometry>
        </mxCell>
        <mxCell id="QxSOPmF_ZFx1kEeD80Ws-126" value="" style="endArrow=none;html=1;rounded=0;fontSize=10;entryX=1;entryY=0.5;entryDx=0;entryDy=0;exitX=0;exitY=0.5;exitDx=0;exitDy=0;" parent="1" source="QxSOPmF_ZFx1kEeD80Ws-7" target="QxSOPmF_ZFx1kEeD80Ws-123" edge="1">
          <mxGeometry width="50" height="50" relative="1" as="geometry">
            <mxPoint x="530" y="240" as="sourcePoint" />
            <mxPoint x="400" y="140" as="targetPoint" />
          </mxGeometry>
        </mxCell>
        <mxCell id="QxSOPmF_ZFx1kEeD80Ws-127" value="Enrolled" style="rhombus;whiteSpace=wrap;html=1;fontSize=10;" parent="1" vertex="1">
          <mxGeometry x="360" y="470" width="80" height="80" as="geometry" />
        </mxCell>
        <mxCell id="QxSOPmF_ZFx1kEeD80Ws-128" value="&lt;span style=&quot;font-size: 10px;&quot;&gt;Semester&lt;/span&gt;" style="ellipse;whiteSpace=wrap;html=1;" parent="1" vertex="1">
          <mxGeometry x="280" y="465" width="60" height="40" as="geometry" />
        </mxCell>
        <mxCell id="QxSOPmF_ZFx1kEeD80Ws-129" value="&lt;span style=&quot;font-size: 10px;&quot;&gt;Grade&lt;/span&gt;" style="ellipse;whiteSpace=wrap;html=1;" parent="1" vertex="1">
          <mxGeometry x="280" y="520" width="60" height="40" as="geometry" />
        </mxCell>
        <mxCell id="QxSOPmF_ZFx1kEeD80Ws-130" value="" style="endArrow=none;html=1;rounded=0;fontSize=10;exitX=0;exitY=0;exitDx=0;exitDy=0;entryX=1;entryY=0.5;entryDx=0;entryDy=0;" parent="1" source="QxSOPmF_ZFx1kEeD80Ws-127" target="QxSOPmF_ZFx1kEeD80Ws-128" edge="1">
          <mxGeometry width="50" height="50" relative="1" as="geometry">
            <mxPoint x="370" y="485" as="sourcePoint" />
            <mxPoint x="320" y="485" as="targetPoint" />
          </mxGeometry>
        </mxCell>
        <mxCell id="QxSOPmF_ZFx1kEeD80Ws-131" value="" style="endArrow=none;html=1;rounded=0;fontSize=10;exitX=0;exitY=1;exitDx=0;exitDy=0;entryX=1;entryY=0.5;entryDx=0;entryDy=0;" parent="1" source="QxSOPmF_ZFx1kEeD80Ws-127" target="QxSOPmF_ZFx1kEeD80Ws-129" edge="1">
          <mxGeometry width="50" height="50" relative="1" as="geometry">
            <mxPoint x="370" y="545" as="sourcePoint" />
            <mxPoint x="257" y="490" as="targetPoint" />
          </mxGeometry>
        </mxCell>
        <mxCell id="QxSOPmF_ZFx1kEeD80Ws-132" value="" style="endArrow=none;html=1;rounded=0;fontSize=10;entryX=0.5;entryY=0;entryDx=0;entryDy=0;exitX=1;exitY=1;exitDx=0;exitDy=0;" parent="1" source="QxSOPmF_ZFx1kEeD80Ws-6" target="QxSOPmF_ZFx1kEeD80Ws-127" edge="1">
          <mxGeometry width="50" height="50" relative="1" as="geometry">
            <mxPoint x="380" y="470" as="sourcePoint" />
            <mxPoint x="430" y="420" as="targetPoint" />
            <Array as="points">
              <mxPoint x="400" y="300" />
            </Array>
          </mxGeometry>
        </mxCell>
        <mxCell id="QxSOPmF_ZFx1kEeD80Ws-133" value="" style="endArrow=none;html=1;rounded=0;fontSize=10;exitX=1;exitY=0.5;exitDx=0;exitDy=0;exitPerimeter=0;entryX=0.25;entryY=0;entryDx=0;entryDy=0;" parent="1" source="QxSOPmF_ZFx1kEeD80Ws-127" target="QxSOPmF_ZFx1kEeD80Ws-2" edge="1">
          <mxGeometry width="50" height="50" relative="1" as="geometry">
            <mxPoint x="380" y="470" as="sourcePoint" />
            <mxPoint x="430" y="420" as="targetPoint" />
            <Array as="points">
              <mxPoint x="510" y="510" />
            </Array>
          </mxGeometry>
        </mxCell>
        <mxCell id="QxSOPmF_ZFx1kEeD80Ws-134" value="Planned" style="rhombus;whiteSpace=wrap;html=1;fontSize=10;" parent="1" vertex="1">
          <mxGeometry x="640" y="470" width="80" height="80" as="geometry" />
        </mxCell>
        <mxCell id="QxSOPmF_ZFx1kEeD80Ws-135" value="&lt;span style=&quot;font-size: 10px;&quot;&gt;Semester&lt;/span&gt;" style="ellipse;whiteSpace=wrap;html=1;" parent="1" vertex="1">
          <mxGeometry x="740" y="490" width="60" height="40" as="geometry" />
        </mxCell>
        <mxCell id="QxSOPmF_ZFx1kEeD80Ws-140" value="" style="endArrow=none;html=1;rounded=0;fontSize=10;entryX=0;entryY=0.5;entryDx=0;entryDy=0;exitX=1;exitY=0.5;exitDx=0;exitDy=0;" parent="1" source="QxSOPmF_ZFx1kEeD80Ws-134" target="QxSOPmF_ZFx1kEeD80Ws-135" edge="1">
          <mxGeometry width="50" height="50" relative="1" as="geometry">
            <mxPoint x="750" y="500" as="sourcePoint" />
            <mxPoint x="540" y="370" as="targetPoint" />
          </mxGeometry>
        </mxCell>
        <mxCell id="QxSOPmF_ZFx1kEeD80Ws-141" value="" style="endArrow=none;html=1;rounded=0;fontSize=10;entryX=0.5;entryY=0;entryDx=0;entryDy=0;" parent="1" target="QxSOPmF_ZFx1kEeD80Ws-134" edge="1">
          <mxGeometry width="50" height="50" relative="1" as="geometry">
            <mxPoint x="221" y="300" as="sourcePoint" />
            <mxPoint x="540" y="370" as="targetPoint" />
            <Array as="points">
              <mxPoint x="221" y="360" />
              <mxPoint x="680" y="360" />
            </Array>
          </mxGeometry>
        </mxCell>
        <mxCell id="QxSOPmF_ZFx1kEeD80Ws-142" value="" style="endArrow=none;html=1;rounded=0;fontSize=10;exitX=0;exitY=0.5;exitDx=0;exitDy=0;entryX=0.75;entryY=0;entryDx=0;entryDy=0;" parent="1" source="QxSOPmF_ZFx1kEeD80Ws-134" target="QxSOPmF_ZFx1kEeD80Ws-2" edge="1">
          <mxGeometry width="50" height="50" relative="1" as="geometry">
            <mxPoint x="450" y="520" as="sourcePoint" />
            <mxPoint x="520" y="570" as="targetPoint" />
            <Array as="points">
              <mxPoint x="570" y="510" />
            </Array>
          </mxGeometry>
        </mxCell>
        <mxCell id="QxSOPmF_ZFx1kEeD80Ws-143" value="Meet" style="rhombus;whiteSpace=wrap;html=1;fontSize=10;" parent="1" vertex="1">
          <mxGeometry x="505" y="740" width="70" height="70" as="geometry" />
        </mxCell>
        <mxCell id="QxSOPmF_ZFx1kEeD80Ws-144" value="" style="endArrow=none;html=1;rounded=0;fontSize=10;exitX=0.5;exitY=1;exitDx=0;exitDy=0;entryX=0;entryY=0.5;entryDx=0;entryDy=0;" parent="1" source="QxSOPmF_ZFx1kEeD80Ws-5" target="QxSOPmF_ZFx1kEeD80Ws-143" edge="1">
          <mxGeometry width="50" height="50" relative="1" as="geometry">
            <mxPoint x="480" y="690" as="sourcePoint" />
            <mxPoint x="500" y="760" as="targetPoint" />
            <Array as="points">
              <mxPoint x="230" y="740" />
            </Array>
          </mxGeometry>
        </mxCell>
        <mxCell id="QxSOPmF_ZFx1kEeD80Ws-145" value="" style="endArrow=none;html=1;rounded=0;fontSize=10;exitX=0.564;exitY=1.019;exitDx=0;exitDy=0;entryX=1;entryY=0.5;entryDx=0;entryDy=0;exitPerimeter=0;" parent="1" source="QxSOPmF_ZFx1kEeD80Ws-4" target="QxSOPmF_ZFx1kEeD80Ws-143" edge="1">
          <mxGeometry width="50" height="50" relative="1" as="geometry">
            <mxPoint x="190" y="630" as="sourcePoint" />
            <mxPoint x="515" y="785" as="targetPoint" />
            <Array as="points">
              <mxPoint x="910" y="770" />
            </Array>
          </mxGeometry>
        </mxCell>
        <mxCell id="QxSOPmF_ZFx1kEeD80Ws-146" value="" style="endArrow=none;html=1;rounded=0;fontSize=10;entryX=0;entryY=0.5;entryDx=0;entryDy=0;exitX=0.5;exitY=0;exitDx=0;exitDy=0;" parent="1" source="QxSOPmF_ZFx1kEeD80Ws-143" target="QxSOPmF_ZFx1kEeD80Ws-2" edge="1">
          <mxGeometry width="50" height="50" relative="1" as="geometry">
            <mxPoint x="480" y="710" as="sourcePoint" />
            <mxPoint x="530" y="660" as="targetPoint" />
            <Array as="points">
              <mxPoint x="540" y="720" />
              <mxPoint x="390" y="720" />
              <mxPoint x="390" y="590" />
            </Array>
          </mxGeometry>
        </mxCell>
        <mxCell id="QxSOPmF_ZFx1kEeD80Ws-147" value="Taught_By" style="rhombus;whiteSpace=wrap;html=1;fontSize=10;" parent="1" vertex="1">
          <mxGeometry x="730" y="380" width="80" height="85" as="geometry" />
        </mxCell>
        <mxCell id="QxSOPmF_ZFx1kEeD80Ws-148" value="" style="endArrow=none;html=1;rounded=0;fontSize=10;exitX=0;exitY=0.25;exitDx=0;exitDy=0;" parent="1" source="QxSOPmF_ZFx1kEeD80Ws-9" edge="1">
          <mxGeometry width="50" height="50" relative="1" as="geometry">
            <mxPoint x="740" y="430" as="sourcePoint" />
            <mxPoint x="770" y="380" as="targetPoint" />
            <Array as="points">
              <mxPoint x="770" y="255" />
            </Array>
          </mxGeometry>
        </mxCell>
        <mxCell id="QxSOPmF_ZFx1kEeD80Ws-149" value="" style="endArrow=none;html=1;rounded=0;fontSize=10;exitX=0.5;exitY=0;exitDx=0;exitDy=0;entryX=0;entryY=0.5;entryDx=0;entryDy=0;" parent="1" source="QxSOPmF_ZFx1kEeD80Ws-2" target="QxSOPmF_ZFx1kEeD80Ws-147" edge="1">
          <mxGeometry width="50" height="50" relative="1" as="geometry">
            <mxPoint x="640" y="480" as="sourcePoint" />
            <mxPoint x="690" y="430" as="targetPoint" />
            <Array as="points">
              <mxPoint x="540" y="490" />
              <mxPoint x="630" y="490" />
              <mxPoint x="630" y="423" />
            </Array>
          </mxGeometry>
        </mxCell>
        <mxCell id="QxSOPmF_ZFx1kEeD80Ws-150" value="1" style="text;html=1;strokeColor=none;fillColor=none;align=center;verticalAlign=middle;whiteSpace=wrap;rounded=0;fontSize=10;" parent="1" vertex="1">
          <mxGeometry x="270" y="80" width="60" height="30" as="geometry" />
        </mxCell>
        <mxCell id="QxSOPmF_ZFx1kEeD80Ws-151" value="N" style="text;html=1;strokeColor=none;fillColor=none;align=center;verticalAlign=middle;whiteSpace=wrap;rounded=0;fontSize=10;" parent="1" vertex="1">
          <mxGeometry x="390" y="80" width="60" height="30" as="geometry" />
        </mxCell>
        <mxCell id="QxSOPmF_ZFx1kEeD80Ws-152" value="N" style="text;html=1;strokeColor=none;fillColor=none;align=center;verticalAlign=middle;whiteSpace=wrap;rounded=0;fontSize=10;" parent="1" vertex="1">
          <mxGeometry x="230" y="170" width="60" height="30" as="geometry" />
        </mxCell>
        <mxCell id="QxSOPmF_ZFx1kEeD80Ws-153" value="N" style="text;html=1;strokeColor=none;fillColor=none;align=center;verticalAlign=middle;whiteSpace=wrap;rounded=0;fontSize=10;" parent="1" vertex="1">
          <mxGeometry x="320" y="230" width="60" height="30" as="geometry" />
        </mxCell>
        <mxCell id="QxSOPmF_ZFx1kEeD80Ws-154" value="1" style="text;html=1;strokeColor=none;fillColor=none;align=center;verticalAlign=middle;whiteSpace=wrap;rounded=0;fontSize=10;" parent="1" vertex="1">
          <mxGeometry x="660" y="130" width="60" height="30" as="geometry" />
        </mxCell>
        <mxCell id="QxSOPmF_ZFx1kEeD80Ws-155" value="N" style="text;html=1;strokeColor=none;fillColor=none;align=center;verticalAlign=middle;whiteSpace=wrap;rounded=0;fontSize=10;" parent="1" vertex="1">
          <mxGeometry x="760" y="170" width="60" height="30" as="geometry" />
        </mxCell>
        <mxCell id="QxSOPmF_ZFx1kEeD80Ws-156" value="N" style="text;html=1;strokeColor=none;fillColor=none;align=center;verticalAlign=middle;whiteSpace=wrap;rounded=0;fontSize=10;" parent="1" vertex="1">
          <mxGeometry x="340" y="445" width="60" height="30" as="geometry" />
        </mxCell>
        <mxCell id="QxSOPmF_ZFx1kEeD80Ws-157" value="N" style="text;html=1;strokeColor=none;fillColor=none;align=center;verticalAlign=middle;whiteSpace=wrap;rounded=0;fontSize=10;" parent="1" vertex="1">
          <mxGeometry x="440" y="480" width="60" height="30" as="geometry" />
        </mxCell>
        <mxCell id="QxSOPmF_ZFx1kEeD80Ws-158" value="N" style="text;html=1;strokeColor=none;fillColor=none;align=center;verticalAlign=middle;whiteSpace=wrap;rounded=0;fontSize=10;" parent="1" vertex="1">
          <mxGeometry x="640" y="445" width="60" height="30" as="geometry" />
        </mxCell>
        <mxCell id="QxSOPmF_ZFx1kEeD80Ws-159" value="N" style="text;html=1;strokeColor=none;fillColor=none;align=center;verticalAlign=middle;whiteSpace=wrap;rounded=0;fontSize=10;" parent="1" vertex="1">
          <mxGeometry x="595" y="490" width="60" height="30" as="geometry" />
        </mxCell>
        <mxCell id="QxSOPmF_ZFx1kEeD80Ws-160" value="N" style="text;html=1;strokeColor=none;fillColor=none;align=center;verticalAlign=middle;whiteSpace=wrap;rounded=0;fontSize=10;" parent="1" vertex="1">
          <mxGeometry x="447.5" y="395" width="60" height="30" as="geometry" />
        </mxCell>
        <mxCell id="QxSOPmF_ZFx1kEeD80Ws-161" value="1" style="text;html=1;strokeColor=none;fillColor=none;align=center;verticalAlign=middle;whiteSpace=wrap;rounded=0;fontSize=10;" parent="1" vertex="1">
          <mxGeometry x="530" y="360" width="60" height="30" as="geometry" />
        </mxCell>
        <mxCell id="QxSOPmF_ZFx1kEeD80Ws-162" value="N" style="text;html=1;strokeColor=none;fillColor=none;align=center;verticalAlign=middle;whiteSpace=wrap;rounded=0;fontSize=10;" parent="1" vertex="1">
          <mxGeometry x="690" y="390" width="60" height="30" as="geometry" />
        </mxCell>
        <mxCell id="QxSOPmF_ZFx1kEeD80Ws-163" value="1" style="text;html=1;strokeColor=none;fillColor=none;align=center;verticalAlign=middle;whiteSpace=wrap;rounded=0;fontSize=10;" parent="1" vertex="1">
          <mxGeometry x="760" y="355" width="60" height="30" as="geometry" />
        </mxCell>
        <mxCell id="QxSOPmF_ZFx1kEeD80Ws-164" value="N" style="text;html=1;strokeColor=none;fillColor=none;align=center;verticalAlign=middle;whiteSpace=wrap;rounded=0;fontSize=10;" parent="1" vertex="1">
          <mxGeometry x="565" y="750" width="60" height="30" as="geometry" />
        </mxCell>
        <mxCell id="QxSOPmF_ZFx1kEeD80Ws-165" value="N" style="text;html=1;strokeColor=none;fillColor=none;align=center;verticalAlign=middle;whiteSpace=wrap;rounded=0;fontSize=10;" parent="1" vertex="1">
          <mxGeometry x="460" y="750" width="60" height="30" as="geometry" />
        </mxCell>
        <mxCell id="QxSOPmF_ZFx1kEeD80Ws-166" value="1" style="text;html=1;strokeColor=none;fillColor=none;align=center;verticalAlign=middle;whiteSpace=wrap;rounded=0;fontSize=10;" parent="1" vertex="1">
          <mxGeometry x="480" y="720" width="60" height="30" as="geometry" />
        </mxCell>
        <mxCell id="r6kAvry2ieSXt-EXwDfp-1" value="&lt;div style=&quot;text-align: left; font-size: 15px;&quot;&gt;&lt;span style=&quot;background-color: initial;&quot;&gt;&lt;font style=&quot;font-size: 15px;&quot;&gt;Trương Văn Khải - 21520274&lt;/font&gt;&lt;/span&gt;&lt;/div&gt;&lt;div style=&quot;text-align: left; font-size: 15px;&quot;&gt;&lt;span style=&quot;background-color: initial;&quot;&gt;&lt;font style=&quot;font-size: 15px;&quot;&gt;Lê Yến Nhi - 21522427&lt;/font&gt;&lt;/span&gt;&lt;/div&gt;&lt;div style=&quot;text-align: left; font-size: 15px;&quot;&gt;&lt;span style=&quot;background-color: initial;&quot;&gt;&lt;font style=&quot;font-size: 15px;&quot;&gt;Ngô Phúc Danh - 21521924&lt;/font&gt;&lt;/span&gt;&lt;/div&gt;&lt;div style=&quot;text-align: left; font-size: 15px;&quot;&gt;&lt;span style=&quot;background-color: initial;&quot;&gt;&lt;font style=&quot;font-size: 15px;&quot;&gt;Lê Ngô Minh Đức - 21520195&lt;/font&gt;&lt;/span&gt;&lt;/div&gt;" style="text;html=1;strokeColor=none;fillColor=none;align=center;verticalAlign=middle;whiteSpace=wrap;rounded=0;" vertex="1" parent="1">
          <mxGeometry x="30" y="760" width="280" height="80" as="geometry" />
        </mxCell>
      </root>
    </mxGraphModel>
  </diagram>
</mxfile>
